<svg xmlns="http://www.w3.org/2000/svg" xmlns:xlink="http://www.w3.org/1999/xlink" viewBox="0 0 1087.03 582.69"><defs><style>.cls-1{fill:#231f20;opacity:0.31;}.cls-2{fill:#fff;}.cls-3{isolation:isolate;}.cls-4,.cls-6{fill:#dc2e45;}.cls-5{opacity:0.28;}.cls-6{opacity:0.4;mix-blend-mode:soft-light;}.cls-7{fill:#a33e48;}.cls-8{fill:#4c141e;}.cls-9{fill:#262626;}.cls-10{fill:#161616;}.cls-11{fill:#902033;}.cls-12{fill:#7a1526;}.cls-13{fill:#3f3f3f;}.cls-14{fill:#ffbbb4;}.cls-15{fill:#070202;}.cls-16{fill:#9e0808;}.cls-17{fill:#050505;}.cls-18{fill:#ddd;}.cls-19{fill:none;stroke:#dc2e45;stroke-linecap:round;stroke-miterlimit:10;stroke-width:3px;}.cls-20{font-size:28.56px;font-family:Montserrat-Bold, Montserrat;font-weight:700;letter-spacing:0em;}.cls-21{letter-spacing:0.01em;}.cls-22{letter-spacing:-0.01em;}.cls-23{letter-spacing:0em;}.cls-24{font-size:12.98px;font-family:Montserrat-Regular, Montserrat;letter-spacing:-0.05em;}.cls-25{letter-spacing:0.01em;}.cls-26{letter-spacing:0em;}.cls-27{letter-spacing:0em;}.cls-28{letter-spacing:0.01em;}.cls-29{letter-spacing:0.01em;}</style><symbol id="New_Symbol" data-name="New Symbol" viewBox="0 0 84 182.63"><g id="Phone"><rect width="84" height="182.63" rx="13"/><rect class="cls-1" x="1.81" y="2.88" width="80.38" height="176.5" rx="13"/><rect class="cls-2" x="3.38" y="21.75" width="77.25" height="139.5"/></g></symbol></defs><g class="cls-3"><g id="Layer_2" data-name="Layer 2"><g id="Layer_1-2" data-name="Layer 1"><circle class="cls-4" cx="61.01" cy="84.45" r="22.5"/><g class="cls-5"><path class="cls-6" d="M187.08,130.85c31.58-31.71,80.18-38.75,121-23.71s73.88,48.63,98.44,86.91c11.4,17.77,21.31,36.79,34.6,53s30.79,29.62,50.69,31.92c28.63,3.32,54.55-16.3,81.11-28.31,45.36-20.5,103.32-16.57,137.08,22.05,28.75,32.89,33.86,85,18.37,127S679.5,474.11,641.87,494s-79.48,28.45-121.08,33.68C462.36,535,402.55,536,345.31,521.4S235.68,473.16,196,426.25C125.71,343.2,126.08,192.09,187.08,130.85Z"/><path class="cls-6" d="M744.71,369.8c-8.55-16.94-5.05-37.75,6.23-52.58s28.95-24.16,47.39-29.41c8.56-2.43,17.42-4.1,25.59-7.51s15.79-8.9,19.29-16.76c5-11.32.57-24.42-.77-36.82-2.29-21.17,12.14-46.51,31.82-55.69,20.65-9.63,74.17,8,89.17,74,24.63,108.33-58.26,153.87-96.78,166.42C816.45,427.8,761.21,402.52,744.71,369.8Z"/><path class="cls-6" d="M590,16.53c13.71,14.55,16.63,38.6,5.66,55.31-8.07,12.3-22.06,19.7-30.42,31.8-4.09,5.91-6.67,12.73-10.44,18.84s-9.23,11.78-16.27,13.2c-10.06,2-19.65-5.15-26.24-13C493.6,100.34,487,68.4,495.4,40.49,507.11,1.52,560.37-14.92,590,16.53Z"/><path class="cls-6" d="M757.92,505.72c6.34,4,12.37,9.3,14.46,16.47,3.2,11-4.82,23.33-15.78,26.65s-23.34-1.36-31-9.85c-10-11-9.69-24.52,1.44-34.33C736.24,496.52,748,499.53,757.92,505.72Z"/><path class="cls-6" d="M661.92,31.71c4.34,2.71,8.46,6.36,9.89,11.27,2.19,7.52-3.29,16-10.79,18.23s-16-.93-21.22-6.74c-6.84-7.53-6.63-16.77,1-23.48C647.09,25.42,655.16,27.48,661.92,31.71Z"/><path class="cls-6" d="M143.93,409.36c4.33,2.71,8.46,6.36,9.88,11.27,2.19,7.52-3.29,16-10.78,18.22s-16-.93-21.23-6.73c-6.83-7.54-6.62-16.77,1-23.48C129.1,403.07,137.16,405.13,143.93,409.36Z"/></g><polygon class="cls-7" points="262.31 280.29 313.81 371.29 228.81 389.79 171.81 293.79 262.31 280.29"/><polygon class="cls-7" points="226.81 219.79 171.81 293.79 262.31 280.29 313.81 208.29 226.81 219.79"/><polygon class="cls-8" points="313.81 212.29 363.31 324.79 313.81 371.29 262.31 280.29 313.81 208.29 313.81 212.29"/><polyline class="cls-2" points="255.81 215.76 210.31 285.76 222.81 309.26 243.31 304.76 230.81 281.76 275.31 213.04"/><polygon class="cls-7" points="834.21 207.47 762.01 335.04 881.17 360.98 961.08 226.4 834.21 207.47"/><polygon class="cls-7" points="883.98 122.66 961.08 226.4 834.21 207.47 762.01 106.53 883.98 122.66"/><polygon class="cls-8" points="762.01 112.14 692.62 269.86 762.01 335.04 834.21 207.47 762.01 106.53 762.01 112.14"/><polyline class="cls-2" points="843.32 117.01 907.11 215.14 889.58 248.09 860.84 241.78 878.37 209.54 815.98 113.19"/><path class="cls-9" d="M306.73,212.37l1.5,217.08H1005V407s-.75-6.75-10.5-15C987,385.58,885.84,284.73,840.25,239.2a147.79,147.79,0,0,0-63.8-37.57c-26-7.44-56-15.15-103-15.51-96-.75-357.19,5.34-357.19,5.34Z"/><path class="cls-10" d="M673.73,186.12H332a25,25,0,0,0-25,25v1.25H673.73Z"/><path class="cls-2" d="M877.48,314l-78.21-69.59a36.2,36.2,0,0,0-24.07-9.16H731.08V367.29l146.4,1.41Z"/><path class="cls-2" d="M889,321.82V368.7h44.7a4.51,4.51,0,0,0,3.08-7.8Z"/><rect class="cls-8" x="307.98" y="429.45" width="697" height="31.88"/><path class="cls-2" d="M957.23,403.2h27a12,12,0,0,1,12,12v14.25a0,0,0,0,1,0,0h-51a0,0,0,0,1,0,0V415.2A12,12,0,0,1,957.23,403.2Z"/><rect class="cls-4" x="782.23" y="387.45" width="50.25" height="17.25" rx="8.62"/><rect class="cls-4" x="307.98" y="461.32" width="697" height="50.63"/><circle class="cls-10" cx="853.93" cy="510.76" r="59.69"/><circle class="cls-2" cx="853.93" cy="510.76" r="34.15"/><circle class="cls-10" cx="385.93" cy="510.76" r="59.69"/><circle class="cls-2" cx="385.93" cy="510.76" r="34.15"/><rect class="cls-2" x="385.93" y="235.2" width="311.92" height="57.38" rx="11.25"/><rect class="cls-2" x="498.73" y="308.16" width="199.13" height="57.38" rx="11.25"/><path class="cls-4" d="M92.19,463a35.48,35.48,0,0,0-28.6,56.48L92.19,562l21-31.23,7.5-11.14.11-.16a43,43,0,0,0,5.75-12.23A35.48,35.48,0,0,0,92.19,463Zm13.1,45.74a17.12,17.12,0,1,1,4-11A17.06,17.06,0,0,1,105.29,508.76Z"/><path class="cls-4" d="M904.39,5.91a26.67,26.67,0,0,0-26.65,26.65,26.63,26.63,0,0,0,5.17,15.77l21.48,31.88,15.8-23.45,5.63-8.37.08-.12a32.46,32.46,0,0,0,4.32-9.18A26.66,26.66,0,0,0,904.39,5.91Zm9.84,34.35a12.86,12.86,0,1,1,3-8.27A12.82,12.82,0,0,1,914.23,40.26Z"/><use width="84" height="182.63" transform="translate(488.22 20.6) rotate(12.99) scale(2.71)" xlink:href="#New_Symbol"/><path class="cls-11" d="M211.29,440.25h47.25a0,0,0,0,1,0,0v56.63a0,0,0,0,1,0,0H157.29a0,0,0,0,1,0,0v-2.63A54,54,0,0,1,211.29,440.25Z" transform="translate(39.13 -15.47) rotate(4.7)"/><circle class="cls-10" cx="478.08" cy="524.81" r="45"/><circle class="cls-2" cx="478.08" cy="524.81" r="25.75"/><path class="cls-12" d="M471.91,465.72a48.75,48.75,0,0,0-48.75,48.75h97.5A48.75,48.75,0,0,0,471.91,465.72Z"/><path class="cls-4" d="M422.73,332.63s-8.57,20.68,6.43,30.68l-8.9,3,49.4,73.5s5.5,18.5,0,27.5-49.4,75-49.4,75H292.66s-16.5-11-16.5-18l127,.5s37.47-18.29,42-74.25a36.94,36.94,0,0,0-3.4-18.54l-24.9-51.15S406.25,394,404.75,397s-5.59-26.14-5.59-26.14-14.5-28.5,4.5-33.5S422.73,332.63,422.73,332.63Z"/><path class="cls-8" d="M418.69,380.44a3.38,3.38,0,0,0-5-1.23c-5.46,3.88-14.52,14.54-4.57,39.6,13.5,34,15.5,86.5-35,88.5s-172-13-172-13l3,26,62.5,4.5h139.5c6.88-2.82,7.62-3.21,15-10.19,24-28,24.56-63.56,23.5-76.31C443.89,417.1,428.39,399.54,418.69,380.44Z"/><circle class="cls-10" cx="202.91" cy="524.81" r="45"/><circle class="cls-2" cx="202.91" cy="524.81" r="25.75"/><rect class="cls-12" x="190.66" y="511.06" width="95" height="27.5" rx="13.75"/><path class="cls-13" d="M435.43,346.66c1.67,8.15-1,15.58-5.95,16.6s-10.33-4.77-12-12.92-.33-16.6,4.63-17.62S433.76,338.51,435.43,346.66Z"/><path class="cls-2" d="M428.51,339.88c.85,4.19-.41,8-2.83,8.48s-5.08-2.5-5.94-6.68-.24-8.52,2.18-9S427.65,335.7,428.51,339.88Z"/><path class="cls-4" d="M404,318.64s5.75,7.13,4.12,21.88h1.38s.62-16.63-4.13-23S404,318.64,404,318.64Z"/><path class="cls-4" d="M394.78,302.08h5.37a6,6,0,0,1,6,6v8.11a6,6,0,0,1-6,6h-5.37a10.05,10.05,0,0,1-10.05-10.05v0a10.05,10.05,0,0,1,10.05-10.05Z" transform="translate(531.4 797.22) rotate(-143.94)"/><path class="cls-4" d="M332,454.68s-19.31,35.4,9.94,52.28q-21.45-1.09-43.89-2.85t-43.55-4A40.49,40.49,0,0,1,247.67,490c-3.21-7.42-6.06-19.53-4.56-38.28Z"/><path class="cls-11" d="M159.66,327.73h80.25a8,8,0,0,1,8,8v23.5a0,0,0,0,1,0,0H134.66a0,0,0,0,1,0,0v-6.5A25,25,0,0,1,159.66,327.73Z"/><path class="cls-11" d="M134.66,427.48c4.46,9.86,12.77,16.5,22.31,16.5h82.7c4.55,0,8.24-4.73,8.24-10.56v-5.94Z"/><rect class="cls-4" x="134.66" y="359.23" width="113.25" height="68.25"/><path class="cls-8" d="M321.5,456h10.58a9.83,9.83,0,0,0,7.87-3.94c8.63-11.54,30.54-44.43-.08-44.43-32.31,0-96.73-1.71-112.88-2.15a9.75,9.75,0,0,0-7.73,3.44,13.54,13.54,0,0,0-2.76,13.71c3.75,10.87,4.12,33.37,27,33.37Z"/><path class="cls-10" d="M245.26,382.06s-15.47,40,13.4,39.25,87.43-6.25,87.43-6.25L348,496.81h12s39.75-109.12,6.37-110.25S245.26,382.06,245.26,382.06Z"/><path class="cls-9" d="M230.26,382.06s-16.13,42,12.75,41.25,88.12-6.37,88.12-6.37L333,496.81h12s39.75-109.12,6.37-110.25S230.26,382.06,230.26,382.06Z"/><path class="cls-14" d="M352.21,276l2.58-2.93,19.67-18.7,2.37,1H397l-1.25,31.13s-7.38,1.2-11.37-1.32a3.38,3.38,0,0,0-2.69-.36l-20.82,5.55Z"/><path class="cls-15" d="M397.71,254.39s.62-20.12-23.5-20.12-25.13,22.12-25.13,22.12S347.21,281,376.33,281l.5-25.63h20.88Z"/><path class="cls-14" d="M388.69,359.48l8.47-4.1s10.25,8.9,14,9.15c1.25.09,2.08-1.14,2.64-2.8a13.37,13.37,0,0,0-5.5-15.37,12,12,0,0,0-10.39-1.58l-10.75,5.5Z"/><path class="cls-4" d="M230.26,382.06l39.11,1.49s-2.38,11.31,20.79,9.81c9.87-.64,28.86-6.54,48.36-13.08,26.27-8.81,52.12-21.75,52.12-21.75s-3-8.25,0-10.13-71.62,19.5-78,19.5c0,0,44.63-57.75,47.63-73.87l-9.75-18.38s-17.61-14.08-43.13,1.88c-33,20.61-75.44,69.44-77.13,104.53"/><rect class="cls-16" x="353.38" y="271.94" width="4.5" height="22.43" rx="2.25" transform="translate(-97.69 249.27) rotate(-34.25)"/><ellipse class="cls-15" cx="390.47" cy="263.19" rx="1.31" ry="2.63"/><polygon class="cls-17" points="361.13 492.5 361.13 499.25 375.76 510.5 346.88 510.5 346.88 492.5 361.13 492.5"/><polygon points="346.69 493.5 346.69 500.25 361.32 511.5 332.44 511.5 332.44 493.5 346.69 493.5"/><circle class="cls-8" cx="397.16" cy="363.38" r="8"/><rect class="cls-18" x="52.87" y="569.81" width="999.15" height="12.88" rx="6.44"/><circle class="cls-4" cx="19.5" cy="410.89" r="19.5"/><circle class="cls-4" cx="71.83" cy="393.68" r="5.71"/><circle class="cls-4" cx="102.03" cy="127.21" r="9.96"/><circle class="cls-4" cx="957.78" cy="134.57" r="8.23"/><circle class="cls-4" cx="994.27" cy="101.1" r="17.51"/><circle class="cls-4" cx="1020.69" cy="387.89" r="8.23"/><circle class="cls-4" cx="1069.52" cy="396.07" r="17.51"/><path class="cls-4" d="M567.65,189.6a30.71,30.71,0,0,0-34.79,42.34L549,273.18l23.65-22.42,8.43-8,.12-.12a37.47,37.47,0,0,0,7.17-9.25,30.74,30.74,0,0,0-20.76-43.79Zm2.46,41.11a14.82,14.82,0,1,1,5.48-8.56A14.79,14.79,0,0,1,570.11,230.71Z"/><polygon class="cls-19" points="520.65 247.38 493.87 280.92 595.03 304.01 586.47 262.22 520.65 247.38"/><path class="cls-19" d="M510.92,259.56c7.6-1.65,21.07-2.47,29.64,3.21,9.4,6.23,9,15.63,17.89,22,5.34,3.84,14.72,7.05,32.21,2.57"/><path class="cls-19" d="M568.5,259.24a28.67,28.67,0,0,0,20.94,17.35"/><text class="cls-20" transform="translate(454.44 311.33) rotate(12.55)">P<tspan class="cls-21" x="20.82" y="0">alihug </tspan><tspan class="cls-22" x="125.48" y="0">C</tspan><tspan class="cls-23" x="146.21" y="0">o</tspan><tspan class="cls-21" x="165.07" y="0">.</tspan></text><text class="cls-24" transform="translate(468.88 340.12) rotate(12.55)">Y<tspan class="cls-25" x="7.62" y="0">our e</tspan><tspan class="cls-26" x="41.73" y="0">r</tspan><tspan class="cls-27" x="46.99" y="0">r</tspan><tspan class="cls-28" x="52.23" y="0">a</tspan><tspan class="cls-29" x="60.05" y="0">n</tspan><tspan class="cls-28" x="69.02" y="0">ds Buddy</tspan></text><rect class="cls-8" x="945.23" y="488.93" width="70.88" height="42.75" rx="11.29"/></g></g></g></svg>