<svg xmlns="http://www.w3.org/2000/svg" viewBox="0 0 169.28 170.7"><defs><style>.cls-1{fill:#dc2e45;}.cls-2{fill:none;stroke:#dc2e45;stroke-linecap:round;stroke-miterlimit:10;stroke-width:3px;}</style></defs><g id="Layer_2" data-name="Layer 2"><g id="Layer_1-2" data-name="Layer 1"><path class="cls-1" d="M80.92,0A30.71,30.71,0,0,0,51.47,38.49,30.26,30.26,0,0,0,56.59,49.1L81.66,85.63l18-27.19L106,48.75l.09-.14A37.11,37.11,0,0,0,111,38,30.72,30.72,0,0,0,80.92,0ZM92.6,39.5A14.82,14.82,0,1,1,96,29.92,14.77,14.77,0,0,1,92.6,39.5Z"/><polygon class="cls-2" points="48.17 66.91 29.66 105.62 133.42 105.27 115.65 66.49 48.17 66.91"/><path class="cls-2" d="M41.45,81c7-3.32,20-7.16,29.59-3.56,10.57,3.95,12.33,13.19,22.39,17.39,6.08,2.53,15.94,3.55,32-4.76"/><path class="cls-2" d="M97.47,67.65a28.68,28.68,0,0,0,24.31,12.18"/><path d="M13.27,124.61a6.91,6.91,0,0,1,3,2.5A7.06,7.06,0,0,1,17.37,131a6.91,6.91,0,0,1-1,3.84,6.75,6.75,0,0,1-3,2.53,11.28,11.28,0,0,1-4.61.89l-4,0,0,5.51-4.62,0-.09-20,8.65,0A11.14,11.14,0,0,1,13.27,124.61Zm-1.66,8.94a3.6,3.6,0,0,0,0-5.14,4.84,4.84,0,0,0-3.18-.89l-3.77,0,0,6.94,3.77,0A4.91,4.91,0,0,0,11.61,133.55Z"/><path d="M32.22,129.74a6.52,6.52,0,0,1,1.93,5.12l0,8.77-4.17,0v-1.91q-1.25,2.14-4.67,2.16a7.33,7.33,0,0,1-3.08-.59,4.48,4.48,0,0,1-2-1.65,4.35,4.35,0,0,1-.7-2.39,4,4,0,0,1,1.6-3.38,8.28,8.28,0,0,1,5-1.25H29.7a2.86,2.86,0,0,0-.9-2.24,3.93,3.93,0,0,0-2.66-.78,8,8,0,0,0-2.41.4,6.37,6.37,0,0,0-2,1.05L20.11,130a9.66,9.66,0,0,1,3-1.38,13.27,13.27,0,0,1,3.61-.5A8.08,8.08,0,0,1,32.22,129.74Zm-3.76,10.62a2.9,2.9,0,0,0,1.25-1.56v-1.58l-3.06,0c-1.83,0-2.74.61-2.73,1.81a1.58,1.58,0,0,0,.67,1.35,3,3,0,0,0,1.85.49A3.88,3.88,0,0,0,28.46,140.36Z"/><path d="M38.47,122.42l4.45,0,.1,21.19-4.46,0Z"/><path d="M47.65,125.35a2.29,2.29,0,0,1-.78-1.77,2.33,2.33,0,0,1,.76-1.77,2.82,2.82,0,0,1,2-.72,2.87,2.87,0,0,1,2,.67,2.19,2.19,0,0,1,.78,1.71,2.41,2.41,0,0,1-.76,1.85,2.82,2.82,0,0,1-2,.74A2.86,2.86,0,0,1,47.65,125.35Zm-.22,2.86,4.46,0L52,143.56H47.5Z"/><path d="M70.33,129.6a6.75,6.75,0,0,1,1.78,5.07l0,8.8-4.46,0,0-8.11a4.08,4.08,0,0,0-.81-2.73,3,3,0,0,0-2.32-.89,3.56,3.56,0,0,0-2.68,1.06,4.34,4.34,0,0,0-1,3.1l0,7.6-4.46,0-.09-21.2,4.45,0,0,7.43A6,6,0,0,1,63,128.38a7.84,7.84,0,0,1,2.74-.48A6.29,6.29,0,0,1,70.33,129.6Z"/><path d="M91.93,128,92,143.38l-4.23,0v-1.83a5.85,5.85,0,0,1-2.11,1.54,7.29,7.29,0,0,1-7.46-1.18,6.94,6.94,0,0,1-1.8-5.16l0-8.69,4.45,0,0,8q0,3.72,3.13,3.7a3.35,3.35,0,0,0,2.56-1,4.38,4.38,0,0,0,1-3.11l0-7.59Z"/><path d="M112.27,127.93l.06,12.79q0,4.23-2.18,6.3t-6.41,2.08a16.13,16.13,0,0,1-4.23-.52A9.3,9.3,0,0,1,96.19,147l1.75-3.21a7.09,7.09,0,0,0,2.47,1.26,9.29,9.29,0,0,0,3,.46,4.83,4.83,0,0,0,3.41-1.05,4.16,4.16,0,0,0,1.08-3.17v-.65a6.24,6.24,0,0,1-4.85,1.93,8,8,0,0,1-3.87-.91,7.08,7.08,0,0,1-2.8-2.6,7.88,7.88,0,0,1,0-7.77,7.08,7.08,0,0,1,2.77-2.63,8.26,8.26,0,0,1,3.87-.94,6.1,6.1,0,0,1,5.09,2.18v-2Zm-5.48,9.95a3.87,3.87,0,0,0,0-5.46,4.12,4.12,0,0,0-2.9-1,4.18,4.18,0,0,0-2.91,1.06,3.83,3.83,0,0,0,0,5.45,4.59,4.59,0,0,0,5.82,0Z"/><path d="M129.6,142.24a10,10,0,0,1-3.9-3.67,10.75,10.75,0,0,1,0-10.66,10,10,0,0,1,3.87-3.7,12.42,12.42,0,0,1,10.25-.46,9.37,9.37,0,0,1,3.54,2.62l-3,2.75a6.37,6.37,0,0,0-5-2.32,6.69,6.69,0,0,0-3.31.83,5.83,5.83,0,0,0-2.26,2.28,6.61,6.61,0,0,0-.8,3.32,6.71,6.71,0,0,0,.82,3.31,5.79,5.79,0,0,0,2.29,2.26,6.67,6.67,0,0,0,3.31.8,6.37,6.37,0,0,0,5-2.4l3,2.73a9.28,9.28,0,0,1-3.53,2.68,11.92,11.92,0,0,1-4.71.93A11.54,11.54,0,0,1,129.6,142.24Z"/><path d="M148.94,142.35a7.52,7.52,0,0,1-3-2.8,8.23,8.23,0,0,1,0-8.17,7.43,7.43,0,0,1,3-2.82,9.79,9.79,0,0,1,8.7,0,7.59,7.59,0,0,1,3,2.8,8.23,8.23,0,0,1,0,8.17,7.53,7.53,0,0,1-3,2.82,9,9,0,0,1-4.33,1A9.28,9.28,0,0,1,148.94,142.35Zm7.15-3.83a4.9,4.9,0,0,0,0-6.2,4,4,0,0,0-5.64,0,4.87,4.87,0,0,0,0,6.2,3.77,3.77,0,0,0,2.83,1.14A3.68,3.68,0,0,0,156.09,138.52Z"/><path d="M164.55,142.5a2.69,2.69,0,0,1-.81-2,2.63,2.63,0,0,1,.79-2,2.95,2.95,0,0,1,3.94,0,2.57,2.57,0,0,1,.81,2,2.71,2.71,0,0,1-.79,2,2.83,2.83,0,0,1-3.94,0Z"/><path d="M22.76,165.5l0,3.14h-1V165.5l-3.67-5.93h1l3.14,5.09,3.09-5.12h1Z"/><path d="M28.1,168.24A3.24,3.24,0,0,1,26.85,167a3.71,3.71,0,0,1,0-3.58,3.15,3.15,0,0,1,1.24-1.24,3.54,3.54,0,0,1,1.78-.45,3.63,3.63,0,0,1,1.78.43,3.28,3.28,0,0,1,1.25,1.23,3.58,3.58,0,0,1,.45,1.79,3.52,3.52,0,0,1-.44,1.79,3.28,3.28,0,0,1-1.23,1.25,3.75,3.75,0,0,1-3.56,0Zm3.08-.72a2.4,2.4,0,0,0,.9-.94,3,3,0,0,0,.32-1.4,3.09,3.09,0,0,0-.33-1.38,2.35,2.35,0,0,0-.91-.94,2.6,2.6,0,0,0-1.31-.33,2.68,2.68,0,0,0-1.3.34,2.38,2.38,0,0,0-.91.95,3,3,0,0,0-.32,1.39,2.78,2.78,0,0,0,.34,1.39,2.33,2.33,0,0,0,.91.93,2.71,2.71,0,0,0,2.61,0Z"/><path d="M41.51,161.73l0,6.83h-.89v-1.24a2.52,2.52,0,0,1-1,1,3,3,0,0,1-1.45.35,2.89,2.89,0,0,1-2.11-.74,2.86,2.86,0,0,1-.78-2.18l0-4h.92l0,3.87a2.27,2.27,0,0,0,.54,1.64,2,2,0,0,0,1.52.55,2.24,2.24,0,0,0,1.7-.67,2.54,2.54,0,0,0,.61-1.82v-3.58Z"/><path d="M46.1,162a3.34,3.34,0,0,1,1.59-.36v.9h-.22a2.13,2.13,0,0,0-1.68.67,2.61,2.61,0,0,0-.61,1.85l0,3.48h-.92l0-6.83h.88v1.33A2.21,2.21,0,0,1,46.1,162Z"/><path d="M59.13,165.36l-5.71,0a2.45,2.45,0,0,0,.82,1.72,2.71,2.71,0,0,0,1.87.64,2.78,2.78,0,0,0,1.17-.23,2.51,2.51,0,0,0,.92-.67l.52.59a2.87,2.87,0,0,1-1.13.84,3.82,3.82,0,0,1-1.5.29,3.66,3.66,0,0,1-1.86-.44A3.07,3.07,0,0,1,53,166.89a3.56,3.56,0,0,1-.47-1.79,3.62,3.62,0,0,1,.43-1.79,3.09,3.09,0,0,1,1.19-1.24,3.52,3.52,0,0,1,3.41,0,3.08,3.08,0,0,1,1.18,1.22,3.66,3.66,0,0,1,.44,1.8Zm-5-2.31a2.46,2.46,0,0,0-.76,1.64l4.85,0a2.51,2.51,0,0,0-.77-1.64,2.35,2.35,0,0,0-1.67-.62A2.26,2.26,0,0,0,54.17,163.05Z"/><path d="M63,161.94a3.22,3.22,0,0,1,1.59-.36v.9l-.22,0a2.23,2.23,0,0,0-1.69.67,2.7,2.7,0,0,0-.6,1.86v3.48h-.92l0-6.83h.89V163A2.26,2.26,0,0,1,63,161.94Z"/><path d="M68.27,161.91a3.34,3.34,0,0,1,1.59-.35v.89h-.22a2.2,2.2,0,0,0-1.69.67,2.58,2.58,0,0,0-.6,1.86v3.48h-.92l0-6.83h.88V163A2.33,2.33,0,0,1,68.27,161.91Z"/><path d="M76.11,162.2a2.56,2.56,0,0,1,.72,2l0,4.23H76v-1.06a2.1,2.1,0,0,1-.91.83,3.31,3.31,0,0,1-1.43.31A2.84,2.84,0,0,1,71.8,168a1.75,1.75,0,0,1-.68-1.44,1.7,1.7,0,0,1,.62-1.4,3,3,0,0,1,2-.54h2.17v-.42a1.73,1.73,0,0,0-.5-1.34,2,2,0,0,0-1.44-.46,4,4,0,0,0-1.25.22,3.2,3.2,0,0,0-1,.6l-.42-.69a3.71,3.71,0,0,1,1.24-.68,4.65,4.65,0,0,1,1.54-.25A2.87,2.87,0,0,1,76.11,162.2Zm-1,5.2a2.16,2.16,0,0,0,.83-1v-1.12H73.77c-1.17,0-1.75.42-1.75,1.23a1.15,1.15,0,0,0,.46.94,2.09,2.09,0,0,0,1.28.34A2.38,2.38,0,0,0,75.09,167.4Z"/><path d="M85,162.24a2.93,2.93,0,0,1,.77,2.17l0,4h-.93V164.5a2.34,2.34,0,0,0-.54-1.62,2,2,0,0,0-1.52-.55,2.37,2.37,0,0,0-1.75.67,2.49,2.49,0,0,0-.63,1.81v3.58h-.92l0-6.83h.89v1.26a2.63,2.63,0,0,1,1-1A3.34,3.34,0,0,1,83,161.5,2.79,2.79,0,0,1,85,162.24Z"/><path d="M94.67,158.7l0,9.63h-.88V167a2.8,2.8,0,0,1-1.1,1.06,3.09,3.09,0,0,1-1.53.37,3.57,3.57,0,0,1-1.75-.43,3.2,3.2,0,0,1-1.22-1.23,3.59,3.59,0,0,1-.45-1.8,3.7,3.7,0,0,1,.43-1.81,3.14,3.14,0,0,1,1.22-1.23,3.51,3.51,0,0,1,1.74-.44,3.24,3.24,0,0,1,1.5.33,2.92,2.92,0,0,1,1.1,1l0-4.1Zm-2.11,8.56a2.38,2.38,0,0,0,.91-.95,3,3,0,0,0,.32-1.39,2.78,2.78,0,0,0-.34-1.39,2.27,2.27,0,0,0-.91-.93,2.55,2.55,0,0,0-1.29-.33,2.45,2.45,0,0,0-1.3.34,2.29,2.29,0,0,0-.91.94,2.88,2.88,0,0,0-.33,1.39,3,3,0,0,0,.34,1.39,2.35,2.35,0,0,0,.91.94,2.76,2.76,0,0,0,2.6,0Z"/><path d="M97.68,168.14a3.31,3.31,0,0,1-1.19-.6l.41-.72a3.64,3.64,0,0,0,1.08.54,4.43,4.43,0,0,0,1.35.21,2.48,2.48,0,0,0,1.38-.3.92.92,0,0,0,.45-.82.72.72,0,0,0-.25-.59,1.58,1.58,0,0,0-.62-.32,6.84,6.84,0,0,0-1-.21A12.22,12.22,0,0,1,98,165a2,2,0,0,1-.87-.54,1.53,1.53,0,0,1-.36-1.08,1.7,1.7,0,0,1,.71-1.41,3.19,3.19,0,0,1,2-.55,5.11,5.11,0,0,1,1.33.17,3.54,3.54,0,0,1,1.09.46l-.4.74a3.45,3.45,0,0,0-2-.58,2.34,2.34,0,0,0-1.34.32,1,1,0,0,0-.44.82.79.79,0,0,0,.26.62,1.48,1.48,0,0,0,.63.34c.25.07.6.15,1,.23a12.68,12.68,0,0,1,1.31.3,2,2,0,0,1,.85.53,1.47,1.47,0,0,1,.35,1,1.65,1.65,0,0,1-.74,1.42,3.61,3.61,0,0,1-2.07.54A5.28,5.28,0,0,1,97.68,168.14Z"/><path d="M114.79,164.33a2.19,2.19,0,0,1,.49,1.48,2.1,2.1,0,0,1-.85,1.81,4.39,4.39,0,0,1-2.55.64H107.7l0-9.08,3.92,0a4,4,0,0,1,2.36.6,2,2,0,0,1,.84,1.72,2.09,2.09,0,0,1-1.38,2.07A2.47,2.47,0,0,1,114.79,164.33ZM108.62,160l0,3.3h2.89a2.92,2.92,0,0,0,1.7-.43,1.56,1.56,0,0,0,0-2.45,3,3,0,0,0-1.7-.42ZM113.7,167a1.44,1.44,0,0,0,.62-1.3c0-1.13-.83-1.7-2.47-1.69h-3.21v3.42h3.21A3.37,3.37,0,0,0,113.7,167Z"/><path d="M123.57,161.38l0,6.83h-.88V167a2.59,2.59,0,0,1-1,1,3.11,3.11,0,0,1-1.45.35,2.65,2.65,0,0,1-2.9-2.93l0-4h.93v3.87a2.29,2.29,0,0,0,.54,1.63,2,2,0,0,0,1.52.55,2.21,2.21,0,0,0,1.7-.66,2.58,2.58,0,0,0,.62-1.83l0-3.58Z"/><path d="M132.53,158.53l0,9.64h-.88v-1.35a2.78,2.78,0,0,1-1.09,1.06,3.22,3.22,0,0,1-1.54.37,3.41,3.41,0,0,1-1.74-.44,3.11,3.11,0,0,1-1.22-1.22,3.6,3.6,0,0,1-.45-1.81,3.69,3.69,0,0,1,.43-1.8,3.16,3.16,0,0,1,1.22-1.24,3.57,3.57,0,0,1,1.74-.44,3.24,3.24,0,0,1,1.5.34,2.92,2.92,0,0,1,1.1,1l0-4.1Zm-2.11,8.56a2.27,2.27,0,0,0,.9-.94,2.88,2.88,0,0,0,.33-1.39,2.78,2.78,0,0,0-.34-1.39,2.29,2.29,0,0,0-.91-.94,2.47,2.47,0,0,0-1.29-.32,2.6,2.6,0,0,0-1.31.33,2.42,2.42,0,0,0-.9.95,2.88,2.88,0,0,0-.33,1.39,3,3,0,0,0,.34,1.39,2.33,2.33,0,0,0,.91.93,2.6,2.6,0,0,0,1.31.33A2.44,2.44,0,0,0,130.42,167.09Z"/><path d="M141.49,158.5l0,9.63h-.88v-1.35a2.77,2.77,0,0,1-1.09,1.06,3.25,3.25,0,0,1-1.54.37,3.51,3.51,0,0,1-1.74-.43,3.2,3.2,0,0,1-1.22-1.23,3.92,3.92,0,0,1,0-3.61,3.07,3.07,0,0,1,1.22-1.23,3.46,3.46,0,0,1,1.73-.45,3.19,3.19,0,0,1,1.5.34,2.88,2.88,0,0,1,1.11,1l0-4.1Zm-2.11,8.56a2.42,2.42,0,0,0,.9-.95,3.05,3.05,0,0,0,0-2.78,2.35,2.35,0,0,0-.91-.94,2.57,2.57,0,0,0-1.29-.32,2.6,2.6,0,0,0-1.31.33,2.42,2.42,0,0,0-.9.95,3.05,3.05,0,0,0,0,2.78,2.42,2.42,0,0,0,.91.94,2.7,2.7,0,0,0,1.31.32A2.58,2.58,0,0,0,139.38,167.06Z"/><path d="M150,161.26l-3.39,7.67a3.22,3.22,0,0,1-1,1.36,2.13,2.13,0,0,1-1.31.41,2.73,2.73,0,0,1-.92-.15,1.91,1.91,0,0,1-.74-.47l.42-.69a1.71,1.71,0,0,0,1.25.52,1.28,1.28,0,0,0,.8-.26,2.41,2.41,0,0,0,.61-.89l.3-.66L143,161.29h1l2.59,5.79,2.55-5.81Z"/></g></g></svg>