<svg xmlns="http://www.w3.org/2000/svg" viewBox="0 0 554.16 572"><defs><style>.cls-1,.cls-5{fill:#dc2e45;}.cls-1{opacity:0.17;}.cls-2{fill:#ffbbb4;}.cls-3{fill:#161616;}.cls-4{fill:#3d3b3b;}.cls-6{fill:#eaa8a4;}.cls-7{fill:#fb9390;}.cls-8{fill:#fff;}.cls-9{fill:#f7a491;}</style></defs><g id="Layer_2" data-name="Layer 2"><g id="Layer_1-2" data-name="Layer 1"><path class="cls-1" d="M474.2,515.55a231.1,231.1,0,0,0,35-122.58c0-128.19-103.91-232.1-232.1-232.1S45,264.78,45,393A231,231,0,0,0,80,515.55Z"/><path class="cls-2" d="M353.42,486.53s-.95,11.72-.18,15.53c.41,2,2.68,6.24,1.64,8.15a5.23,5.23,0,0,1-2.24,2.4l-27.06.43c-1.48,0-.5-.91.68-1.77,1.95-1.4,3.52-2.33,9.74-5.29.4-.19,1.88-1.12,2.41-1.44a18.59,18.59,0,0,0,3.87-3.36c1.94-2.13,2.11-12.45,2.11-12.45Z"/><path class="cls-3" d="M332.26,330.78s-11.63-5.73-9.39,6.74,19.28,152.73,19.28,152.73l16,.89s2-46.77,1.59-53.48-3.09-17.11-3.09-17.11l-1.35-41.48L340.2,327.85Z"/><path d="M338.41,504.54a24.9,24.9,0,0,0,15.41-.59c.76,2.12,1.78,4.79,1.24,6.33-.66,1.89-1.51,2.72-2.34,2.74-6.54.17-24,0-29,.06a.81.81,0,0,1-.64-1.32C324.31,510.31,337.88,504.86,338.41,504.54Z"/><path class="cls-2" d="M322.87,246.49S313,227.56,311.5,220.61s-6.81-41.93-6.36-44.18,3.73-3.47,2.7-5.39-3.92-6.12-5.74-6-5.49,1.23-7.05,2.52,1.76,43.22,2.75,52.25S311,256.67,311,256.67Z"/><path class="cls-2" d="M399.5,394s8.11-8.51,9.92-12c1-1.84,1.84-6.53,3.86-7.37a5.21,5.21,0,0,1,3.25-.45l21.29,16.72c1.16.91-.19,1-1.65.94-2.4-.13-4.2-.4-10.89-2-.44-.11-2.17-.32-2.78-.41a18.59,18.59,0,0,0-5.13.18c-2.85.43-9.48,8.33-9.48,8.33Z"/><path d="M422.49,389.44c-4.42-5.91-9.3-8.29-12.34-9.24.75-2.13,1.57-4.92,3-5.78,1.7-1.05,2.87-.83,3.53-.33,5.18,4,18.75,14.9,22.66,18a.8.8,0,0,1-.34,1.42C437.08,393.85,423.11,389.53,422.49,389.44Z"/><path d="M399.69,240.72c-5.05-10.59-16.24-16.42-27.08-13.6a24.93,24.93,0,0,0-16.15-9.83c-12.35-1.75-28.27,4.24-26.65,17.13-3.9,9-2.94,21.43,4.85,27.51-1.43,11.85,10.44,22.36,24.5,20.94,5.66,7.81,15.49,12.39,24.69,10.6a55,55,0,0,1,6.13-1.13c-.72-.08,16,10.89,27.59-8.65C429.36,263.76,417.75,241.47,399.69,240.72Z"/><path class="cls-4" d="M327.58,335.3s26.09-11.6,26.5-10.28c3.27,10.54,13.45,7.14,19.49,25.7,2.53,7.77,5.12,59.45,5.12,59.45s10.29-8.53,25-23.45c1.13-1.15,12.18,9.36,12.18,9.36-29.18,39.43-41.77,41.49-46.64,39.28-10.16-4.61-31.61-69.06-31.57-69.06C335.07,361.29,327.58,335.3,327.58,335.3Z"/><path class="cls-2" d="M370.83,262.49s37.71-.05,45.78-.52c7.31-.42,36.29.32,37.43.19s8.62-12.82,9.87-11.46-4.17,6.29-2.5,7.57,19.66-1.58,19.42-.25c-.44,2.48-10.94,2.17-10.93,3.37s11-.68,11.73,1.32-10.55.81-11,1.7,10.47,2.52,9.36,4.38c-.61,1-9.69-1.69-9.64-.31s6.66,4.49,5.85,5.59-5.2-3.36-9-3.42-6.59-2.06-12.73-.37c-3,.83-26.15,3.65-45.69,5.32-20,1.72-36.44,2.26-36.44,2.26Z"/><path class="cls-5" d="M314.91,289.15a48,48,0,0,1,1-12.73c-1.83-6.29-5.73-19.71-7.13-22.34,0,0,6.56-12.62,13.29-12.53,0,0,6.86,15.47,12.17,18.23a12.53,12.53,0,0,0,2.67.8c5.12,0,23-.58,26.37-.64l-1.88,25.4c-13,25.44-9.46,38.78-4.53,43.72,2.32,2.32-32.38,11.75-34,8.46C321,333.64,315.92,301.39,314.91,289.15Z"/><path class="cls-5" d="M354.15,260.9c3.3-1.58,27.2-.78,27.2-.78s3.34,16.64.64,20.64c0,0-21.37,3.18-20.76,4.93Z"/><path class="cls-2" d="M347.88,250.21a122.7,122.7,0,0,0,0,12.85c.42,3.79-3.88,12.65-11.89,12.8s-1.18-8.5-.48-12.22,1.55-18.29,1.55-18.29Z"/><path class="cls-6" d="M337.07,245.35s-.2,3.38-.48,7.3a9.31,9.31,0,0,0,11.13,2.72c.06-2.81.16-5.16.16-5.16Z"/><path class="cls-2" d="M348.55,223.16a13.35,13.35,0,0,1,7.08,5.89c2.55,4.54,3.62,17.46-6.16,22.78S333,248.21,333.42,240,336.39,220.86,348.55,223.16Z"/><path class="cls-2" d="M331.45,237.25c.67,2,2.17,3.38,3.36,3s1.61-2.35.95-4.39-2.16-3.39-3.35-3S330.79,235.2,331.45,237.25Z"/><path class="cls-2" d="M355,240.51c-.83,2.09-.35,4.24,1.07,4.8s3.23-.68,4.06-2.78.35-4.24-1.07-4.8S355.82,238.42,355,240.51Z"/><path class="cls-7" d="M310.53,167.21s-2.15-2.57-1.26-3.06c1.46-.81,4,2.3,3.73,3.06s-2.9,3.19-2.9,3.19"/><path class="cls-2" d="M206.12,457.82s-14.5,10.45-16.78,13.57c-3.29,4.49,24.56,12.89,21.52,7.63-.7-1.21-2.7-5.28-2.79-5.68-.46-2.14,5.44-7.91,5.44-7.91Z"/><path d="M218.4,487.81l-9.85-13.91s-6.14-1.43-12.45-8.53a23.13,23.13,0,0,0-9.16,6.86,160.65,160.65,0,0,0,16.74,15.09A46.53,46.53,0,0,0,218,495.46C226.34,498.27,218.4,487.81,218.4,487.81Z"/><path class="cls-2" d="M85,267.34s1.79,1.57,2.42,2.05,3.07,2.08,3.07,2.08,8.46,4.82,8.75,4.18a4.16,4.16,0,0,0-.14-2.94c-.42-.48-1.64-1-2.06-1.45a1.55,1.55,0,0,1,0-2c.54-.54,3.43,1,3.43,1a10.79,10.79,0,0,1,3.32,2.87c3.39,5.45,2.37,5.77,2.82,6.45s12.4,6.2,12.4,6.2,35.48,14.75,37.4,15.56h0c.26,1.64-.62,3.15-1.07,4.61-.85,5.07-2.36,5.4-3.51,10.29-5.44-2.75-43.11-23.51-46.94-25.67,0,0-5.74-1-9.32-1.71s-6.71-3-7.7-3.36A34,34,0,0,1,81,281.38c-3-2.36.89-1.47.89-1.47s6.39,3.39,6.55,2.85-3.46-2.06-6.85-4.64c-.87-.66-1.73-1.31-2.51-1.92-2.06-1.6-1.7-3.28.71-1.94a28.49,28.49,0,0,1,3.16,2A22.93,22.93,0,0,0,86,278a29.74,29.74,0,0,0,3.17,1.75c0-.13.51-.17-.4-.9-1.08-.88-3.79-2.25-5.29-3.66-.85-.8-2.73-2.37-2.73-2.37a23.34,23.34,0,0,1-2.29-3.07c.63-1,2.82.49,3.84,1.72a18.07,18.07,0,0,1,3,2.17s4.65,2.6,5,2c.15-.27-2.52-2.19-4.86-4.48-2.17-2.13-4-4.61-3.67-5.09C82.32,265.22,85,267.34,85,267.34Z"/><path class="cls-3" d="M184,350.4l2.29,11.34,57.65,52.43-41.26,41.76,11.14,11.39s60.94-44.75,63.14-50.62c3.38-9-43.69-68.83-43.69-68.83Z"/><path class="cls-2" d="M144,487.54s-11.63,12.67-13.91,15.79c-3.29,4.49,21.26,11.12,18.22,5.86-.69-1.2-2.7-5.27-2.79-5.67-.46-2.15,5.44-7.91,5.44-7.91Z"/><path d="M161.24,508.79l-16-5.85s-6,2.75-15.27.5a21.24,21.24,0,0,0-3.46,10.41s30.34,3.87,38.78,1.45S161.24,508.79,161.24,508.79Z"/><path class="cls-4" d="M185.92,355.66l2.59,71.54-51.15,62.71,13.84,7.58S207.78,448.93,214,435.4c3.86-8.39,16.82-84.23,16.82-84.23Z"/><path class="cls-8" d="M232.42,349.78c-4.69-10.58-4.15-86.43-22.39-104.2-6.42,1.08-11,1.69-12.07,2-1,7.82-2,36.49-2.65,62.77-.42,17.51,0,35.87-2.14,45.55C191.83,361.87,236.7,359.45,232.42,349.78Z"/><path class="cls-5" d="M183,251.47c-5.12,1.16-8.89,2-15.61,11.9-6.43,9.5-20.7,32-20.7,32l-37.59-16.7-1.75,19s42.52,22.11,48.52,20.11S178.77,291.2,180,289.54c.29-.39-1.42,26.33-1.42,30.6s-8.15,41.45-8.15,41.45,20.68,5.09,24.72-4.15c12.38-28.36,2.88-109.91,2.88-109.91S186.71,250.63,183,251.47Z"/><path class="cls-2" d="M260.24,170.28c-1.58-1.32-2.27-4.49-2.53-6.53l-.7-2.7c.64-.26,13.17-2.05,16.95-2.15a7,7,0,0,1,.44,2.86c-.56,3.09-4.51,23.15-4.51,23.15l-10.8.21S261.44,173.23,260.24,170.28Z"/><path class="cls-5" d="M214.26,250s7.4,21.08,13.5,18,40.34-37.95,40.68-39.64,2.71-44.54,2.71-44.54l-13.55-2.69-7.79,35.09s-25.06,23.95-30.13,26.32A9.41,9.41,0,0,0,214.26,250Z"/><path class="cls-5" d="M234.25,354.86a23,23,0,0,0,8.35-1.39s-7.81-44-12.35-87.66c-1.79-17.24-3.46-24.3-10.57-23.06-2.06.36-7.63,2.49-9.65,2.83,17.87,50.57,17.93,89.49,20.46,100.78C231.76,352,232.87,354.89,234.25,354.86Z"/><path class="cls-9" d="M208.14,237.94l1.87,7.64s.43,6.65-2.66,7.25c-3.72.72-9.25-4.85-9.25-4.85l-3.21-21.55Z"/><path class="cls-2" d="M208.14,237.94l1.87,7.64s.43,6.65-2.66,7.25c-3.72.72-9.25-4.85-9.25-4.85l-3.21-21.55Z"/><path class="cls-6" d="M194.92,226.53l13.22,11.41,1.4,5.71C204.49,242.43,197.29,236.87,194.92,226.53Z"/><path class="cls-2" d="M208.19,206.7a7.8,7.8,0,0,1,7.19,5.4,67.37,67.37,0,0,1,2.89,11.06c1.4,8.29-3.32,15.88-7.43,16.48s-13.88-2.11-16.05-13.85c-.92-5-2.14-11.63,2-15.1A18.65,18.65,0,0,1,208.19,206.7Z"/><path d="M196.13,234.73s-13-10.15-13.59-20.23,8.25-13.82,16.21-14.11c3.6-.12,4.39-.36,8.11.11,8,1,11.29-2,9.47,4.53-2.44,8.77-16.6,3.92-20,6.64-2.79,2.25,1.74,7.65-1,9.71-2.55,1.94-1.25,1.28-.4,5A66,66,0,0,1,196.13,234.73Z"/><path class="cls-2" d="M190.55,223.05c.36,2.41,1.83,4.2,3.29,4s2.36-2.35,2-4.76-1.83-4.2-3.3-4S190.19,220.63,190.55,223.05Z"/><path class="cls-4" d="M169.13,144.19,415,191.79c13.23,2.56,25.82-5,28.11-16.86l19.5-100.7c2.3-11.87-6.57-23.57-19.8-26.13L197,.5c-13.23-2.56-25.82,5-28.12,16.86l-19.5,100.69C147,129.93,155.9,141.63,169.13,144.19Z"/><path d="M196.84,211.37c0,3.22-2,4.32-2,6.11-1.89.59-5.25.21-5.3.79-.16,1.9.72,8,3.06,9.28s.89,2.16,2.27,4.32c-.62.47,1.28,1.59.66,2.06-3-2.86-6.67-5.3-8.86-8.7-2.47-3.83-5.75-9-4.87-12.73,1.63-6.83,6.32-12.57,14.77-13,4.71-.22,9.42-1.27,14.1-1.12,3.14.11,7.54-.14,7.1,5.46-.37,4.71-2.28,7.58-7.41,7.51C206,211.32,201.56,211.37,196.84,211.37Z"/><circle class="cls-5" cx="469.05" cy="524.67" r="47.33"/><path class="cls-8" d="M493.42,511.58a3.77,3.77,0,0,0-5.33,0l-21.34,21.34L455.7,521.86a3.77,3.77,0,0,0-5.33,5.33L464,540.79a4,4,0,0,0,5.5.06l23.94-24A3.76,3.76,0,0,0,493.42,511.58Z"/><circle class="cls-5" cx="26.58" cy="466.92" r="17.26"/><circle class="cls-5" cx="77.74" cy="415.34" r="6.95"/><circle class="cls-5" cx="10.55" cy="308.63" r="10.55"/><circle class="cls-5" cx="97.33" cy="183.57" r="12.65"/><circle class="cls-5" cx="132.68" cy="234.5" r="6.32"/><circle class="cls-5" cx="469.74" cy="176.61" r="11.58"/><circle class="cls-5" cx="443.61" cy="211.95" r="5.66"/><circle class="cls-5" cx="486.79" cy="402.92" r="5.47"/><circle class="cls-5" cx="540.68" cy="421.87" r="13.47"/><path class="cls-8" d="M239.09,39.31,224.88,64.53l-3-.57-3.53-24.48L206.06,61l-3-.57-4-28.67,2.92.56,3.38,24.65,12.44-21.65,2.66.51L224,60.58l12.31-21.79Z"/><path class="cls-8" d="M256.44,60.91,239.5,57.69A7.4,7.4,0,0,0,241,63.26a8.19,8.19,0,0,0,5.17,3,8.9,8.9,0,0,0,3.6,0,7.75,7.75,0,0,0,3.11-1.47l1.2,2.07a8.89,8.89,0,0,1-3.84,1.82,12.41,12.41,0,0,1-9.88-2.37,9.81,9.81,0,0,1-3-4.39,10.74,10.74,0,0,1-.34-5.57,11,11,0,0,1,2.3-5.07,9.47,9.47,0,0,1,4.24-3,10,10,0,0,1,5.31-.35,9.86,9.86,0,0,1,4.79,2.27,9.43,9.43,0,0,1,2.81,4.3,11.16,11.16,0,0,1,.26,5.57Zm-13.37-9.7a7.5,7.5,0,0,0-3.18,4.44l14.36,2.73a7.45,7.45,0,0,0-1.33-5.3,7.58,7.58,0,0,0-9.85-1.87Z"/><path class="cls-8" d="M265.72,42.69l2.74.52L263,71.77l-2.73-.51Z"/><path class="cls-8" d="M273.89,72.68a9.66,9.66,0,0,1-3-4.38,11.44,11.44,0,0,1,2-10.65,9.74,9.74,0,0,1,4.41-2.95,11.15,11.15,0,0,1,5.62-.29,10.52,10.52,0,0,1,4.48,1.91,7.88,7.88,0,0,1,2.69,3.6l-2.3,1a6.41,6.41,0,0,0-2.12-2.73,7.63,7.63,0,0,0-3.2-1.39,8.07,8.07,0,0,0-4.13.23,7,7,0,0,0-3.27,2.27,9.39,9.39,0,0,0-1.57,8.26,7.06,7.06,0,0,0,2.21,3.29,8.05,8.05,0,0,0,3.76,1.73,7.88,7.88,0,0,0,3.49-.09,6.39,6.39,0,0,0,3-1.75l1.78,1.77a7.77,7.77,0,0,1-3.84,2.36A10.65,10.65,0,0,1,279,75,11.12,11.12,0,0,1,273.89,72.68Z"/><path class="cls-8" d="M295.2,76.71a9.91,9.91,0,0,1-3-4.38,11.34,11.34,0,0,1,2-10.63,9.74,9.74,0,0,1,4.39-3,11.48,11.48,0,0,1,10.55,2,9.57,9.57,0,0,1,3,4.36,11.47,11.47,0,0,1-2,10.62,9.71,9.71,0,0,1-4.37,3,11.32,11.32,0,0,1-10.55-2Zm9.54-.35a7,7,0,0,0,3.2-2.28,9.45,9.45,0,0,0,1.57-8.24,7,7,0,0,0-2.15-3.3,8.31,8.31,0,0,0-7.74-1.47,7.13,7.13,0,0,0-3.22,2.28,8.72,8.72,0,0,0-1.76,3.94,8.49,8.49,0,0,0,.2,4.3,7,7,0,0,0,2.16,3.3,7.66,7.66,0,0,0,3.68,1.72A7.8,7.8,0,0,0,304.74,76.36Z"/><path class="cls-8" d="M350.81,69.58c1.18,1.74,1.49,4,.95,6.88L349.53,88.2l-2.73-.52L349,76.21a7,7,0,0,0-.61-5.1,5.61,5.61,0,0,0-4-2.47,6.54,6.54,0,0,0-5.33,1,7.67,7.67,0,0,0-2.83,5l-2,10.62-2.73-.52,2.18-11.47a7,7,0,0,0-.61-5.1,5.69,5.69,0,0,0-4-2.48,6.56,6.56,0,0,0-5.31,1,7.6,7.6,0,0,0-2.85,5l-2,10.62-2.73-.52L320,61.61l2.62.49-.7,3.7a7.35,7.35,0,0,1,3.54-2.28,9.64,9.64,0,0,1,4.62-.16,8.86,8.86,0,0,1,4.2,1.91A6.78,6.78,0,0,1,336.43,69a8,8,0,0,1,3.81-2.53,10.12,10.12,0,0,1,5-.22A8.15,8.15,0,0,1,350.81,69.58Z"/><path class="cls-8" d="M376.43,83.7l-16.94-3.22A7.37,7.37,0,0,0,361,86a8.25,8.25,0,0,0,5.17,3,8.89,8.89,0,0,0,3.6,0,7.87,7.87,0,0,0,3.11-1.46l1.2,2.06a8.66,8.66,0,0,1-3.84,1.82,11.66,11.66,0,0,1-4.6,0,11.54,11.54,0,0,1-5.28-2.38,9.75,9.75,0,0,1-3.05-4.39,10.73,10.73,0,0,1-.34-5.57,11.06,11.06,0,0,1,2.3-5.06,9.49,9.49,0,0,1,4.24-3,10.08,10.08,0,0,1,5.31-.35A10,10,0,0,1,373.56,73a9.43,9.43,0,0,1,2.81,4.3,11.09,11.09,0,0,1,.26,5.58ZM363.06,74a7.44,7.44,0,0,0-3.18,4.44l14.36,2.72a7.43,7.43,0,0,0-1.33-5.29A7.55,7.55,0,0,0,363.06,74Z"/><path class="cls-8" d="M401.27,96.75a5.31,5.31,0,0,1-2.1.69,7.7,7.7,0,0,1-2.44-.08,5.45,5.45,0,0,1-4.81-7l2.32-12.24-3.62-.68.44-2.31,3.62.68.84-4.42,2.74.52-.85,4.42,6.16,1.17-.43,2.31L397,78.62l-2.3,12.09a3.89,3.89,0,0,0,.38,2.92,3.47,3.47,0,0,0,2.42,1.44,5.06,5.06,0,0,0,1.69,0,4.15,4.15,0,0,0,1.51-.51Z"/><path class="cls-8" d="M408.49,98.22a9.8,9.8,0,0,1-3-4.38,11.31,11.31,0,0,1,2-10.62,9.68,9.68,0,0,1,4.39-3,11.48,11.48,0,0,1,10.55,2,9.57,9.57,0,0,1,3,4.36,10.7,10.7,0,0,1,.32,5.56,10.81,10.81,0,0,1-2.34,5.06,9.71,9.71,0,0,1-4.37,3,11.32,11.32,0,0,1-10.55-2Zm9.54-.34a7,7,0,0,0,3.2-2.29A8.73,8.73,0,0,0,423,91.66a8.88,8.88,0,0,0-.18-4.31,7,7,0,0,0-2.15-3.29A7.66,7.66,0,0,0,417,82.34a7.8,7.8,0,0,0-4.06.25,7,7,0,0,0-3.22,2.28,8.64,8.64,0,0,0-1.76,3.93,8.49,8.49,0,0,0,.2,4.3,7.1,7.1,0,0,0,2.16,3.31A8.31,8.31,0,0,0,418,97.88Z"/><path class="cls-8" d="M211,84.51A9.9,9.9,0,0,1,214.6,89,11,11,0,0,1,212.5,100a9.81,9.81,0,0,1-5,2.8,16.53,16.53,0,0,1-6.87,0l-5.8-1.1-1.51,7.94-6.66-1.27,5.47-28.78L204.55,82A16.28,16.28,0,0,1,211,84.51Zm-4.88,12.38a4.58,4.58,0,0,0,2.26-3.38,4.66,4.66,0,0,0-.86-4,7.14,7.14,0,0,0-4.32-2.16l-5.42-1-1.9,10,5.43,1A7.1,7.1,0,0,0,206.07,96.89Z"/><path class="cls-8" d="M236.28,97.09q2.28,3,1.35,7.91l-2.4,12.62-6-1.14.52-2.76c-1.59,1.83-4,2.43-7.33,1.81a10.57,10.57,0,0,1-4.25-1.7,6.78,6.78,0,0,1-2.41-2.93,6.41,6.41,0,0,1-.33-3.64,5.87,5.87,0,0,1,3.25-4.42c1.77-.88,4.27-1,7.51-.4l5.1,1a4.16,4.16,0,0,0-.67-3.47A5.66,5.66,0,0,0,227,98.08a11.29,11.29,0,0,0-3.58-.1,9.32,9.32,0,0,0-3.18,1L218.8,94a14,14,0,0,1,4.71-1.15,19.6,19.6,0,0,1,5.34.29Q234,94.13,236.28,97.09Zm-8.37,14.22a4.28,4.28,0,0,0,2.24-1.9l.42-2.26-4.4-.84c-2.63-.5-4.11.12-4.43,1.84a2.34,2.34,0,0,0,.59,2.14,4.4,4.4,0,0,0,2.52,1.22A5.72,5.72,0,0,0,227.91,111.31Z"/><path class="cls-8" d="M246.82,88.21l6.42,1.22-5.8,30.51L241,118.72Z"/><path class="cls-8" d="M258.72,94.9a3.41,3.41,0,0,1-.63-2.76,3.37,3.37,0,0,1,1.6-2.34,4.08,4.08,0,0,1,3.07-.48,4.2,4.2,0,0,1,2.69,1.53,3.2,3.2,0,0,1,.64,2.68A3.55,3.55,0,0,1,264.48,96a4.06,4.06,0,0,1-3.08.5A4.13,4.13,0,0,1,258.72,94.9Zm-1.11,4,6.41,1.22-4.2,22.12-6.41-1.22Z"/><path class="cls-8" d="M289.67,107.25q2.06,3,1.14,7.8l-2.41,12.67L282,126.5l2.21-11.68a5.86,5.86,0,0,0-.4-4.15,4.28,4.28,0,0,0-3.09-1.92,5.17,5.17,0,0,0-4.15.76,6.32,6.32,0,0,0-2.28,4.19l-2.08,10.94-6.42-1.22,5.8-30.51L278,94.13l-2,10.69a8.59,8.59,0,0,1,3.46-1.37,11.41,11.41,0,0,1,4.07.07A9.32,9.32,0,0,1,289.67,107.25Z"/><path class="cls-8" d="M320.69,110.92l-4.2,22.13-6.09-1.16.5-2.63a8.6,8.6,0,0,1-3.46,1.62A10.65,10.65,0,0,1,297,127.1q-2.07-3-1.14-7.93l2.38-12.5,6.41,1.22-2.19,11.55c-.68,3.57.47,5.63,3.46,6.2a4.93,4.93,0,0,0,4-.8,6.42,6.42,0,0,0,2.24-4.2l2.08-10.93Z"/><path class="cls-8" d="M349.47,116.39,346,134.81q-1.16,6.09-4.88,8.45t-9.82,1.2a23.56,23.56,0,0,1-5.93-1.93,13.67,13.67,0,0,1-4.34-3.17l3.42-4.12a10.91,10.91,0,0,0,3.19,2.5,14.36,14.36,0,0,0,4.15,1.49q3.33.63,5.2-.57a6.07,6.07,0,0,0,2.44-4.24l.18-.95a9.12,9.12,0,0,1-7.51,1.43,11.93,11.93,0,0,1-5.32-2.4,10.31,10.31,0,0,1-3.3-4.52,11.54,11.54,0,0,1,2.13-11.18,10.45,10.45,0,0,1,4.72-3,11.92,11.92,0,0,1,5.83-.27c3.21.61,5.44,2.12,6.72,4.55l.53-2.84ZM338.8,129.17a5.65,5.65,0,0,0,1.49-7.85,6,6,0,0,0-3.89-2.3,6.07,6.07,0,0,0-4.48.71,5.6,5.6,0,0,0-1.49,7.85,6.7,6.7,0,0,0,8.37,1.59Z"/><path class="cls-8" d="M369.41,141.63a14.58,14.58,0,0,1-4.59-6.37,15.73,15.73,0,0,1,2.92-15.34,14.45,14.45,0,0,1,6.6-4.24,18.17,18.17,0,0,1,14.87,2.21,13.81,13.81,0,0,1,4.36,4.74l-5,3.14A9.33,9.33,0,0,0,382,121a9.81,9.81,0,0,0-5,.27,8.46,8.46,0,0,0-3.89,2.65,10.5,10.5,0,0,0-1.82,9.54,8.51,8.51,0,0,0,2.65,3.89,9.89,9.89,0,0,0,4.55,2.08,9.37,9.37,0,0,0,7.89-2l3.52,4.76A13.58,13.58,0,0,1,384,145a17.35,17.35,0,0,1-7,0A16.92,16.92,0,0,1,369.41,141.63Z"/><path class="cls-8" d="M396.7,147.11a11,11,0,0,1-3.57-4.88,12,12,0,0,1,2.23-11.76,11,11,0,0,1,5.11-3.22A14.42,14.42,0,0,1,413,129.62a11.14,11.14,0,0,1,3.55,4.87,11.47,11.47,0,0,1,.45,6.18,11.35,11.35,0,0,1-2.68,5.58,11.16,11.16,0,0,1-5.09,3.24,14.42,14.42,0,0,1-12.52-2.38Zm11.36-3.51a7.19,7.19,0,0,0,1.69-8.92,5.4,5.4,0,0,0-3.73-2.44,5.54,5.54,0,0,0-4.39.89,7.14,7.14,0,0,0-1.69,8.93,5.5,5.5,0,0,0,3.75,2.43A5.41,5.41,0,0,0,408.06,143.6Z"/></g></g></svg>